<mxfile host="app.diagrams.net" modified="2022-06-14T14:49:10.823Z" agent="5.0 (Windows NT 10.0; Win64; x64) AppleWebKit/537.36 (KHTML, like Gecko) Chrome/102.0.5005.63 Safari/537.36" etag="-KpfYXG4HHHFy2LWPTkR" version="20.0.1" type="github">
  <diagram id="fp25dNUDkU-ZEg22WAhC" name="Page-1">
    <mxGraphModel dx="1422" dy="737" grid="1" gridSize="10" guides="1" tooltips="1" connect="1" arrows="1" fold="1" page="1" pageScale="1" pageWidth="850" pageHeight="1100" math="0" shadow="0">
      <root>
        <mxCell id="0" />
        <mxCell id="1" parent="0" />
        <mxCell id="d8fNdprlk7IiLmtCqBgx-5" style="edgeStyle=orthogonalEdgeStyle;rounded=0;orthogonalLoop=1;jettySize=auto;html=1;exitX=1;exitY=0;exitDx=0;exitDy=0;" edge="1" parent="1" source="d8fNdprlk7IiLmtCqBgx-1" target="d8fNdprlk7IiLmtCqBgx-2">
          <mxGeometry relative="1" as="geometry" />
        </mxCell>
        <mxCell id="d8fNdprlk7IiLmtCqBgx-6" style="edgeStyle=orthogonalEdgeStyle;rounded=0;orthogonalLoop=1;jettySize=auto;html=1;" edge="1" parent="1" source="d8fNdprlk7IiLmtCqBgx-1" target="d8fNdprlk7IiLmtCqBgx-3">
          <mxGeometry relative="1" as="geometry" />
        </mxCell>
        <mxCell id="d8fNdprlk7IiLmtCqBgx-7" style="edgeStyle=orthogonalEdgeStyle;rounded=0;orthogonalLoop=1;jettySize=auto;html=1;exitX=1;exitY=1;exitDx=0;exitDy=0;" edge="1" parent="1" source="d8fNdprlk7IiLmtCqBgx-1" target="d8fNdprlk7IiLmtCqBgx-4">
          <mxGeometry relative="1" as="geometry" />
        </mxCell>
        <mxCell id="d8fNdprlk7IiLmtCqBgx-1" value="Squats" style="ellipse;whiteSpace=wrap;html=1;" vertex="1" parent="1">
          <mxGeometry x="70" y="220" width="120" height="80" as="geometry" />
        </mxCell>
        <mxCell id="d8fNdprlk7IiLmtCqBgx-2" value="Hip Angle" style="ellipse;whiteSpace=wrap;html=1;" vertex="1" parent="1">
          <mxGeometry x="130" y="90" width="120" height="80" as="geometry" />
        </mxCell>
        <mxCell id="d8fNdprlk7IiLmtCqBgx-3" value="Ankle Angle" style="ellipse;whiteSpace=wrap;html=1;" vertex="1" parent="1">
          <mxGeometry x="220" y="160" width="120" height="80" as="geometry" />
        </mxCell>
        <mxCell id="d8fNdprlk7IiLmtCqBgx-4" value="Knee Angle" style="ellipse;whiteSpace=wrap;html=1;" vertex="1" parent="1">
          <mxGeometry x="230" y="280" width="120" height="80" as="geometry" />
        </mxCell>
        <mxCell id="d8fNdprlk7IiLmtCqBgx-12" style="edgeStyle=orthogonalEdgeStyle;rounded=0;orthogonalLoop=1;jettySize=auto;html=1;" edge="1" parent="1" source="d8fNdprlk7IiLmtCqBgx-8" target="d8fNdprlk7IiLmtCqBgx-9">
          <mxGeometry relative="1" as="geometry" />
        </mxCell>
        <mxCell id="d8fNdprlk7IiLmtCqBgx-13" style="edgeStyle=orthogonalEdgeStyle;rounded=0;orthogonalLoop=1;jettySize=auto;html=1;" edge="1" parent="1" source="d8fNdprlk7IiLmtCqBgx-8" target="d8fNdprlk7IiLmtCqBgx-10">
          <mxGeometry relative="1" as="geometry" />
        </mxCell>
        <mxCell id="d8fNdprlk7IiLmtCqBgx-15" style="edgeStyle=orthogonalEdgeStyle;rounded=0;orthogonalLoop=1;jettySize=auto;html=1;" edge="1" parent="1" source="d8fNdprlk7IiLmtCqBgx-8" target="d8fNdprlk7IiLmtCqBgx-11">
          <mxGeometry relative="1" as="geometry" />
        </mxCell>
        <mxCell id="d8fNdprlk7IiLmtCqBgx-8" value="Bench Press" style="ellipse;whiteSpace=wrap;html=1;" vertex="1" parent="1">
          <mxGeometry x="480" y="250" width="120" height="80" as="geometry" />
        </mxCell>
        <mxCell id="d8fNdprlk7IiLmtCqBgx-9" value="Shoulder Flexion" style="ellipse;whiteSpace=wrap;html=1;" vertex="1" parent="1">
          <mxGeometry x="530" y="120" width="120" height="80" as="geometry" />
        </mxCell>
        <mxCell id="d8fNdprlk7IiLmtCqBgx-10" value="Shoulder Abduction" style="ellipse;whiteSpace=wrap;html=1;" vertex="1" parent="1">
          <mxGeometry x="710" y="130" width="120" height="80" as="geometry" />
        </mxCell>
        <mxCell id="d8fNdprlk7IiLmtCqBgx-11" value="Elbow Flexion" style="ellipse;whiteSpace=wrap;html=1;" vertex="1" parent="1">
          <mxGeometry x="500" y="410" width="120" height="80" as="geometry" />
        </mxCell>
      </root>
    </mxGraphModel>
  </diagram>
</mxfile>
